# xmcd
#
# Track frame offsets:
#	150
#	12547
#	28918
#	41281
#	57036
#	71180
#	84524
#	102937
#	117930
#	130967
#	145691
#	161977
#
# Disc length: 2361 seconds
# Revision: 0
# Processed by: cddbd v1.5.2PL0 Copyright (c) Steve Scherf et al.
# Submitted via: dBpowerAMP V12.0
#
DISCID=a609370c
DTITLE=Rich O'Brien, Devon Dawson And Kristyn Harris - Badger And The Belles
DYEAR=2014
DGENRE=
TTITLE0=Rosalita
TTITLE1=Slow Poke
TTITLE2=Santa Fe is a Long, Long Way from Broadway
TTITLE3=Maggie
TTITLE4=West of Santa Rosa
TTITLE5=Don't Forget the Fiddle
TTITLE6=Under a Blanket of Blue
TTITLE7=Lonely Rose of Mexico
TTITLE8=I Didn't Realize
TTITLE9=Bandera Waltz
TTITLE10=Rose of Old Pawnee
TTITLE11=How Long Has it Been
EXTD=
EXTT0=
EXTT1=
EXTT2=
EXTT3=
EXTT4=
EXTT5=
EXTT6=
EXTT7=
EXTT8=
EXTT9=
EXTT10=
EXTT11=
PLAYORDER=
